<svg width="800" height="316" viewBox="0 0 800 316" fill="none" xmlns="http://www.w3.org/2000/svg">
<path d="M112.994 5.20662e-05V85.8758L0 85.8758L3.75375e-06 4.71271e-05L112.994 5.20662e-05Z" fill="white"/>
<path d="M3.75375e-06 4.71271e-05L85.8757 5.20662e-05V198.87H3.75375e-06V4.71271e-05Z" fill="white"/>
<path d="M198.87 112.994V198.87L3.75375e-06 198.87V112.994L198.87 112.994Z" fill="white"/>
<path d="M112.994 85.8758L198.87 85.8758V198.87L112.994 198.87V85.8758Z" fill="white"/>
<path d="M216.949 50.5147L282.927 0.000146462L402.736 156.484L336.758 206.999L216.949 50.5147Z" fill="white"/>
<path d="M388.701 1.62004e-05V112.994L216.949 112.994V8.69289e-06L388.701 1.62004e-05Z" fill="white"/>
<path d="M216.949 8.69289e-06L302.825 4.85283e-05V198.87H216.949L216.949 8.69289e-06Z" fill="white"/>
<path d="M537.853 8.69289e-06H619.209V198.87H537.853V8.69289e-06Z" fill="white"/>
<path d="M619.209 8.69289e-06V85.8757L420.339 85.8757V0L619.209 8.69289e-06Z" fill="white"/>
<path d="M420.339 0L501.695 8.69289e-06V198.87H420.339V0Z" fill="white"/>
<path d="M637.288 85.8757H800V198.87H637.288V85.8757Z" fill="white"/>
<path d="M777.401 1.48174e-05V85.8757L637.288 85.8757V8.69289e-06L777.401 1.48174e-05Z" fill="white"/>
<path d="M637.288 8.69289e-06L718.644 1.48174e-05V198.87H637.288V8.69289e-06Z" fill="white"/>
<path d="M320.674 276.417C320.674 269.69 322.157 264.367 325.124 260.448C328.116 256.502 332.168 254.529 337.279 254.529C343.132 254.529 347.581 256.859 350.627 261.52L350.865 255.323H355.314V297.431C355.314 302.966 353.765 307.349 350.666 310.58C347.568 313.811 343.37 315.426 338.074 315.426C335.081 315.426 332.221 314.751 329.493 313.4C326.792 312.076 324.66 310.302 323.098 308.077L325.759 305.217C329.123 309.349 333.121 311.414 337.756 311.414C341.728 311.414 344.827 310.236 347.052 307.879C349.276 305.548 350.428 302.304 350.508 298.146V292.744C347.462 296.981 343.026 299.1 337.2 299.1C332.221 299.1 328.222 297.113 325.203 293.141C322.184 289.168 320.674 283.806 320.674 277.052V276.417ZM325.481 277.251C325.481 282.733 326.58 287.063 328.778 290.241C330.976 293.393 334.075 294.968 338.074 294.968C343.927 294.968 348.071 292.346 350.508 287.103V267.121C349.395 264.367 347.793 262.275 345.701 260.845C343.609 259.388 341.093 258.66 338.153 258.66C334.154 258.66 331.043 260.236 328.818 263.387C326.593 266.512 325.481 271.134 325.481 277.251Z" fill="white"/>
<path d="M387.571 259.375C386.564 259.19 385.492 259.097 384.353 259.097C381.387 259.097 378.871 259.931 376.805 261.6C374.766 263.242 373.309 265.638 372.436 268.79V298.305H367.708V255.323H372.356L372.436 262.156C374.951 257.071 378.99 254.529 384.552 254.529C385.876 254.529 386.922 254.701 387.69 255.045L387.571 259.375Z" fill="white"/>
<path d="M420.661 298.305C420.184 296.954 419.88 294.955 419.748 292.307C418.079 294.478 415.947 296.16 413.352 297.352C410.783 298.517 408.055 299.1 405.169 299.1C401.037 299.1 397.687 297.948 395.118 295.644C392.576 293.34 391.305 290.426 391.305 286.904C391.305 282.72 393.039 279.409 396.509 276.973C400.004 274.537 404.864 273.318 411.088 273.318H419.708V268.432C419.708 265.36 418.754 262.95 416.848 261.202C414.967 259.428 412.213 258.541 408.585 258.541C405.275 258.541 402.534 259.388 400.362 261.083C398.19 262.778 397.105 264.817 397.105 267.201L392.338 267.161C392.338 263.745 393.927 260.792 397.105 258.302C400.282 255.787 404.189 254.529 408.823 254.529C413.617 254.529 417.391 255.734 420.145 258.144C422.925 260.527 424.356 263.864 424.435 268.154V288.493C424.435 292.651 424.872 295.763 425.746 297.828V298.305H420.661ZM405.725 294.889C408.903 294.889 411.736 294.121 414.226 292.585C416.742 291.049 418.569 288.996 419.708 286.427V276.973H411.207C406.466 277.026 402.759 277.9 400.084 279.595C397.409 281.263 396.072 283.567 396.072 286.507C396.072 288.917 396.959 290.916 398.733 292.505C400.534 294.094 402.865 294.889 405.725 294.889Z" fill="white"/>
<path d="M471.747 277.251C471.747 283.951 470.264 289.274 467.298 293.22C464.332 297.14 460.346 299.1 455.341 299.1C449.356 299.1 444.827 296.875 441.755 292.426L441.556 298.305H437.107V237.288H441.834V261.56C444.853 256.872 449.329 254.529 455.261 254.529C460.346 254.529 464.358 256.475 467.298 260.368C470.264 264.235 471.747 269.624 471.747 276.536V277.251ZM466.98 276.417C466.98 270.749 465.881 266.38 463.683 263.308C461.485 260.209 458.386 258.66 454.387 258.66C451.342 258.66 448.76 259.415 446.641 260.924C444.522 262.407 442.92 264.592 441.834 267.479V286.864C444.218 292.267 448.429 294.968 454.467 294.968C458.386 294.968 461.445 293.419 463.643 290.32C465.868 287.222 466.98 282.587 466.98 276.417Z" fill="white"/>
<path d="M619.209 94.9153V180.791H420.339V94.9152L619.209 94.9153Z" fill="white"/>
</svg>
